<svg xmlns="http://www.w3.org/2000/svg" viewBox="0 0 112.821 112.821"><mask id="a" width="34" height="33" x="22" y="18" maskUnits="userSpaceOnUse"><path fill="#fff" d="M30.202 18.015 31.614 18l14.687.006c.223.002.362.005.5.009.728.019 1.463.061 2.183.19a7.41 7.41 0 0 1 2.075.676c.652.328 1.25.756 1.767 1.269a6.878 6.878 0 0 1 1.283 1.746c.34.657.553 1.33.684 2.052.13.712.173 1.438.192 2.158.01.33.014.66.015.991l.002.589v13.037c0 .392 0 .785-.002 1.178-.002.33-.005.66-.015.99-.02.72-.062 1.447-.192 2.158a7.202 7.202 0 0 1-.684 2.052 6.897 6.897 0 0 1-1.283 1.747 6.975 6.975 0 0 1-1.767 1.269 7.406 7.406 0 0 1-2.075.676c-.72.128-1.455.17-2.183.19L44.607 51l-13.906-.008a27.229 27.229 0 0 1-.499-.01c-.728-.018-1.463-.061-2.183-.189a7.405 7.405 0 0 1-2.074-.676 6.963 6.963 0 0 1-3.052-3.016 7.236 7.236 0 0 1-.684-2.052c-.13-.711-.172-1.438-.191-2.157-.01-.33-.013-.661-.015-.991L22 41.31V28.275c0-.392 0-.785.003-1.177.002-.33.006-.66.015-.991.02-.72.062-1.446.191-2.158a7.231 7.231 0 0 1 .684-2.052 6.95 6.95 0 0 1 3.051-3.016 7.409 7.409 0 0 1 2.075-.676c.72-.128 1.455-.17 2.183-.19z"/></mask><g stroke-width=".292" mask="url(#a)" transform="matrix(3.4188 0 0 3.4188 -75.214 -61.538)"><path fill="#19aa1e" d="M22 17.998h33.003v33.003H22Z"/><path fill="#ffb919" d="M22 17.998h33.003v10.828L22 23.67Z"/><path fill="#82d714" d="m22 47.39 33.003-5.156V51H22Z"/><path fill="#fff" d="m22 23.018 11.52 1.8c1.434-.908 3.14-1.406 4.981-1.406 2.55 0 4.842.955 6.51 2.631.21.212.408.433.595.663l9.397 1.468v1.305l-8.443-1.32a8.472 8.472 0 0 1 .965 3.914c0 1.768-.395 3.531-1.213 5.301l-.024.054-.348.744h-.82c-1.696 0-2.82.507-3.556 1.406-.577.705-.911 1.657-1.023 2.695l-.004.032-.016.166-.007.072-.014.141c-.043.464-.071.857-.086 1.177l14.589-2.28v1.305L22 48.043v-1.305l14.605-2.282-.006-.293-.002-.082-.002-.043-.002-.065c-.013-.355-.046-.81-.098-1.362l-.01-.105-.018-.181c-.104-1.044-.433-2.007-1.01-2.723-.727-.905-1.84-1.42-3.523-1.43h-.872l-.347-.744c-.834-1.788-1.238-3.569-1.238-5.355 0-2.246.911-4.418 2.515-6.03l.14-.137L22 24.322Z"/><path fill="#0073fa" d="M38.501 24.701c4.608 0 7.735 3.546 7.735 7.372 0 1.536-.335 3.134-1.117 4.81-4.533 0-5.652 3.246-5.864 5.29l-.014.135c-.071.73-.113 1.315-.124 1.755l-1.228.192v-.04a23.516 23.516 0 0 0-.132-1.945l-.003-.036c-.196-2.039-1.291-5.351-5.87-5.351-.783-1.676-1.118-3.274-1.118-4.81 0-3.826 3.128-7.372 7.735-7.372z"/></g></svg>
